<?xml version="1.0" encoding="utf-8"?>
<!-- Generator: Adobe Illustrator 24.1.3, SVG Export Plug-In . SVG Version: 6.00 Build 0)  -->
<svg version="1.1" id="Слой_1" xmlns="http://www.w3.org/2000/svg" xmlns:xlink="http://www.w3.org/1999/xlink" x="0px" y="0px"
	 viewBox="0 0 470 470" style="enable-background:new 0 0 470 470;" xml:space="preserve">
<style type="text/css">
	.st0{fill:#00BCFF;}
</style>
<g>
	<path d="M452.2,33H383V7.5c0-4.1-3.4-7.5-7.5-7.5h-282C89.4,0,86,3.4,86,7.5V33H17.8C8,33,0,41,0,50.8v329.3C0,390,8,398,17.8,398
		H182v57h-70.7c-3.6,0-4.9,15-0.2,15h215.3c3.6,0,4.9-15,0.2-15H289v-57h30.6c1.9,0,2.5-15,0.3-15h-302c-1.6,0-2.8-1.3-2.8-2.8V50.8
		c0-1.6,1.3-2.8,2.8-2.8H87v274H39.2c-3.8,0-4.7,15-0.3,15h280.4c3.8,0,4.7-15,0.3-15H260v-61.5c0-4.1-3.4-7.5-7.5-7.5h-119
		c-4.1,0-7.5,3.4-7.5,7.5V322h-24V40.3c0,0,0-25.3,0-25.3h266v68.1c0,3.8,15,4.7,15,0.3V48h69.2c1.6,0,2.8,1.3,2.8,2.8v329.3
		c0,1.6-1.3,2.8-2.8,2.8h-19.4c-3.8,0-4.7,15-0.3,15h19.7c9.9,0,17.8-8,17.8-17.8V50.8C470,41,462,33,452.2,33z M274,455h-77v-57h77
		V455z M141,268h104v54H141V268z"/>
	<path class="st0" d="M409.9,178.6c0-0.1,0-0.2,0-0.3c0-0.2-0.1-0.3-0.1-0.5c0-0.1,0-0.2-0.1-0.2c0-0.2-0.1-0.3-0.2-0.5
		c0-0.1,0-0.1-0.1-0.2l0-0.1c0,0,0,0,0,0l-26.6-66.2c-1.1-2.8-3.9-4.7-7-4.7s-5.8,1.9-7,4.7l-26.6,66.2c0,0-0.1,0.1-0.1,0.1
		c0,0.1,0,0.1-0.1,0.2c-0.1,0.1-0.1,0.3-0.2,0.5c0,0.1,0,0.2-0.1,0.2c0,0.2-0.1,0.3-0.1,0.5c0,0.1,0,0.2,0,0.3c0,0.1,0,0.3-0.1,0.4
		c0,0.2,0,0.5,0,0.7v256.2c0,18.8,15.3,34.1,34.1,34.1c18.8,0,34.1-15.3,34.1-34.1V179.7c0-0.2,0-0.5,0-0.7
		C410,178.8,409.9,178.7,409.9,178.6L409.9,178.6z M356.7,187.2H395v214.2h-38.3V187.2z M375.9,133.5l15.5,38.7h-31.1L375.9,133.5z
		 M375.9,455c-10.6,0-19.1-8.6-19.1-19.1v-19.5H395v19.5C395,446.4,386.4,455,375.9,455z"/>
	<path d="M134.1,107.8h201.7c4.1,0,7.5-3.4,7.5-7.5V47.5c0-4.1-3.4-7.5-7.5-7.5H134.1c-4.1,0-7.5,3.4-7.5,7.5v52.8
		C126.6,104.4,130,107.8,134.1,107.8L134.1,107.8z M141.6,55h186.7v37.8H141.6L141.6,55L141.6,55z"/>
	<path d="M335.9,122.8H134.1c-4.1,0-7.5,3.4-7.5,7.5c0,4.1,3.4,7.5,7.5,7.5h201.7c4.1,0,7.5-3.4,7.5-7.5S340,122.8,335.9,122.8z"/>
	<path d="M252.8,162.8H134.1c-4.1,0-7.5,3.4-7.5,7.5s3.4,7.5,7.5,7.5h118.7c4.1,0,7.5-3.4,7.5-7.5S257,162.8,252.8,162.8z"/>
	<path d="M320.7,162.8h-37.8c-4.1,0-7.5,3.4-7.5,7.5s3.4,7.5,7.5,7.5h37.8c4.1,0,7.5-3.4,7.5-7.5S324.8,162.8,320.7,162.8z"/>
	<path d="M252.8,192.8H134.1c-4.1,0-7.5,3.4-7.5,7.5s3.4,7.5,7.5,7.5h118.7c4.1,0,7.5-3.4,7.5-7.5S257,192.8,252.8,192.8z"/>
	<path d="M319.2,192.8h-36.4c-4.1,0-7.5,3.4-7.5,7.5s3.4,7.5,7.5,7.5h36.4c4.1,0,7.5-3.4,7.5-7.5S323.4,192.8,319.2,192.8z"/>
	<path d="M252.8,222.8H134.1c-4.1,0-7.5,3.4-7.5,7.5s3.4,7.5,7.5,7.5h118.7c4.1,0,7.5-3.4,7.5-7.5S257,222.8,252.8,222.8z"/>
	<path d="M319.2,222.8h-36.4c-4.1,0-7.5,3.4-7.5,7.5s3.4,7.5,7.5,7.5h36.4c4.1,0,7.5-3.4,7.5-7.5S323.4,222.8,319.2,222.8z"/>
</g>
<rect x="126.6" y="162.8" width="133.7" height="15"/>
<rect x="126.6" y="192.8" width="133.7" height="15"/>
<rect x="126.6" y="222.8" width="133.7" height="15"/>
<rect x="35.5" y="322" width="291.2" height="14.3"/>
<polygon points="0,398 0,380.2 25.8,389.1 319.9,383 323.5,383.3 323.5,398 "/>
<rect x="423.6" y="383.3" width="46.4" height="14.7"/>
</svg>
