<?xml version="1.0" encoding="utf-8"?>
<!-- Generator: Adobe Illustrator 24.1.3, SVG Export Plug-In . SVG Version: 6.00 Build 0)  -->
<svg version="1.1" id="Capa_1" xmlns="http://www.w3.org/2000/svg" xmlns:xlink="http://www.w3.org/1999/xlink" x="0px" y="0px"
	 viewBox="0 0 42.3 42.3" style="enable-background:new 0 0 42.3 42.3;" xml:space="preserve">
<style type="text/css">
	.st0{fill:#00BCFF;}
</style>
<g>
	<path class="st0" d="M32.5,0.1C32.1,0,31.7,0,31.4,0c-5.5,0-8.9,10.4-9,10.8c-0.1,0.2,0,0.4,0.1,0.5c0.1,0.2,0.3,0.3,0.5,0.3
		c1,0.1,2,0.2,2.9,0.2c7.1,0,10.1-3.4,10.4-6.3C36.5,3,35,0.8,32.5,0.1z M34.9,5.4c-0.3,2.4-2.9,5.2-9.2,5.2c-0.6,0-1.3,0-1.9-0.1
		c0.9-2.4,3.7-9.2,7.6-9.2c0.3,0,0.5,0,0.8,0.1C34,1.8,35.2,3.5,34.9,5.4z"/>
	<path class="st0" d="M16.1,11.8L16.1,11.8c0.9,0,1.9-0.1,2.9-0.2c0.2,0,0.4-0.1,0.5-0.3c0.1-0.2,0.1-0.4,0.1-0.5
		C19.3,10.4,16,0,10.5,0c-0.4,0-0.7,0-1.1,0.1C6.9,0.8,5.4,3,5.7,5.5C6,8.4,9,11.8,16.1,11.8z M9.7,1.4c0.3-0.1,0.5-0.1,0.8-0.1
		c3.9,0,6.7,6.9,7.6,9.2c-0.7,0.1-1.3,0.1-1.9,0.1c-6.3,0-8.9-2.8-9.2-5.2C6.7,3.5,7.8,1.8,9.7,1.4z"/>
	<path class="st0" d="M13.2,8.5c0.3,0,0.7,0,1.1-0.1c0.2,0,0.4-0.1,0.5-0.3c0.1-0.2,0.1-0.3,0.1-0.5c-0.1-0.4-1.4-4.3-3.7-4.3
		c-0.2,0-0.3,0-0.5,0.1C9.5,3.7,8.8,4.7,8.9,5.8C9.1,7.1,10.3,8.5,13.2,8.5z M10.9,4.6c0.1,0,0.1,0,0.2,0c0.8,0,1.7,1.4,2.3,2.7
		c-0.1,0-0.1,0-0.2,0c-2.1,0-2.9-0.9-3-1.6C10.1,5.1,10.4,4.7,10.9,4.6z"/>
	<path class="st0" d="M31.2,3.4c-0.2,0-0.3-0.1-0.5-0.1c-2.3,0-3.6,3.9-3.7,4.3c-0.1,0.2,0,0.4,0.1,0.5c0.1,0.2,0.3,0.3,0.5,0.3
		c0.4,0,0.8,0.1,1.1,0.1c2.9,0,4.1-1.5,4.3-2.7C33,4.7,32.3,3.7,31.2,3.4z M28.6,7.3c0,0-0.1,0-0.1,0c0.6-1.3,1.4-2.7,2.3-2.7
		c0.1,0,0.1,0,0.2,0c0.5,0.1,0.8,0.6,0.7,1.1C31.6,6.4,30.7,7.3,28.6,7.3z"/>
	<path d="M1.6,14.1v5.5c0,0.3,0.3,0.6,0.6,0.6h16.3c0.3,0,0.6-0.3,0.6-0.6v-5.5c0-0.3-0.3-0.6-0.6-0.6H2.2
		C1.8,13.5,1.6,13.8,1.6,14.1z M2.8,14.7h15V19h-15V14.7z"/>
	<path d="M40.7,19.6v-5.5c0-0.3-0.3-0.6-0.6-0.6H23.8c-0.3,0-0.6,0.3-0.6,0.6v5.5c0,0.3,0.3,0.6,0.6,0.6h16.3
		C40.4,20.2,40.7,20,40.7,19.6z M39.5,19h-15v-4.3h15V19z"/>
	<path d="M23.8,21.8c-0.3,0-0.6,0.3-0.6,0.6v19.3c0,0.3,0.3,0.6,0.6,0.6H38c0.3,0,0.6-0.3,0.6-0.6V22.4c0-0.3-0.3-0.6-0.6-0.6H23.8z
		 M37.4,41h-13V23h13L37.4,41L37.4,41z"/>
	<path d="M18.5,21.8H4.2c-0.3,0-0.6,0.3-0.6,0.6v19.3c0,0.3,0.3,0.6,0.6,0.6h14.2c0.3,0,0.6-0.3,0.6-0.6V22.4
		C19.1,22,18.8,21.8,18.5,21.8z M17.8,41h-13V23h13V41z"/>
</g>
</svg>
