<?xml version="1.0" encoding="utf-8"?>
<!-- Generator: Adobe Illustrator 24.1.3, SVG Export Plug-In . SVG Version: 6.00 Build 0)  -->
<svg version="1.1" id="Capa_1" xmlns="http://www.w3.org/2000/svg" xmlns:xlink="http://www.w3.org/1999/xlink" x="0px" y="0px"
	 viewBox="0 0 48.7 48.7" style="enable-background:new 0 0 48.7 48.7;" xml:space="preserve">
<style type="text/css">
	.st0{fill:#010002;}
	.st1{fill:#00BCFF;}
</style>
<g>
	<path class="st0" d="M48.1,7h-5.2V3.4c0-0.3-0.3-0.6-0.6-0.6h-3c-0.3,0-0.6,0.3-0.6,0.6V7h-6.9V3.4c0-0.3-0.3-0.6-0.6-0.6h-3
		c-0.3,0-0.6,0.3-0.6,0.6V7h-6.9V3.4c0-0.3-0.3-0.6-0.6-0.6h-3c-0.3,0-0.6,0.3-0.6,0.6V7H9.4V3.4c0-0.3-0.3-0.6-0.6-0.6h-3
		c-0.3,0-0.6,0.3-0.6,0.6V7H0.6C0.3,7,0,7.3,0,7.7v13.2c0,0.3,0.3,0.6,0.6,0.6h2.1v23.8c0,0.3,0.3,0.6,0.6,0.6h42
		c0.3,0,0.6-0.3,0.6-0.6V21.5h2.1c0.3,0,0.6-0.3,0.6-0.6V7.7C48.7,7.3,48.4,7,48.1,7z M39.8,7.7C39.8,7.7,39.8,7.7,39.8,7.7
		C39.8,7.7,39.8,7.7,39.8,7.7V4h1.8v3.6c0,0,0,0,0,0s0,0,0,0v3.7h-1.8C39.8,11.4,39.8,7.7,39.8,7.7z M28.7,4h1.8v7.4h-1.8V4z
		 M17.5,7.7C17.5,7.7,17.5,7.7,17.5,7.7L17.5,7.7V4h1.8v3.6c0,0,0,0,0,0s0,0,0,0v3.7h-1.8V7.7z M6.3,4h1.8v7.4H6.3V4z M47.5,20.3
		h-2.1c-0.3,0-0.6,0.3-0.6,0.6v23.8H4V20.9c0-0.3-0.3-0.6-0.6-0.6H1.3v-12h3.8V12c0,0.3,0.3,0.6,0.6,0.6h3c0.3,0,0.6-0.3,0.6-0.6
		V8.3h6.9V12c0,0.3,0.3,0.6,0.6,0.6h3c0.3,0,0.6-0.3,0.6-0.6V8.3h6.9V12c0,0.3,0.3,0.6,0.6,0.6h3c0.3,0,0.6-0.3,0.6-0.6V8.3h6.9V12
		c0,0.3,0.3,0.6,0.6,0.6h3c0.3,0,0.6-0.3,0.6-0.6V8.3h4.6L47.5,20.3L47.5,20.3z"/>
	<path class="st1" d="M28.3,27.8h4.1c0.3,0,0.6-0.3,0.6-0.6v-4.1c0-0.3-0.3-0.6-0.6-0.6h-4.1c-0.3,0-0.6,0.3-0.6,0.6v4.1
		C27.6,27.5,27.9,27.8,28.3,27.8z M28.9,23.7h2.8v2.8h-2.8V23.7z"/>
	<path class="st1" d="M34.9,27.8H39c0.3,0,0.6-0.3,0.6-0.6v-4.1c0-0.3-0.3-0.6-0.6-0.6h-4.1c-0.3,0-0.6,0.3-0.6,0.6v4.1
		C34.3,27.5,34.6,27.8,34.9,27.8z M35.5,23.7h2.8v2.8h-2.8V23.7z"/>
	<path class="st1" d="M8.9,33.8H13c0.3,0,0.6-0.3,0.6-0.6v-4.1c0-0.3-0.3-0.6-0.6-0.6H8.9c-0.3,0-0.6,0.3-0.6,0.6v4.1
		C8.3,33.6,8.6,33.8,8.9,33.8z M9.6,29.7h2.8v2.9H9.6V29.7z"/>
	<path class="st1" d="M15.3,33.8h4.1c0.3,0,0.6-0.3,0.6-0.6v-4.1c0-0.3-0.3-0.6-0.6-0.6h-4.1c-0.3,0-0.6,0.3-0.6,0.6v4.1
		C14.7,33.6,15,33.8,15.3,33.8z M15.9,29.7h2.8v2.9h-2.8C15.9,32.6,15.9,29.7,15.9,29.7z"/>
	<path class="st1" d="M21.7,33.8h4.1c0.3,0,0.6-0.3,0.6-0.6v-4.1c0-0.3-0.3-0.6-0.6-0.6h-4.1c-0.3,0-0.6,0.3-0.6,0.6v4.1
		C21.1,33.6,21.3,33.8,21.7,33.8z M22.3,29.7h2.8v2.9h-2.8C22.3,32.6,22.3,29.7,22.3,29.7z"/>
	<path class="st1" d="M28.3,33.8h4.1c0.3,0,0.6-0.3,0.6-0.6v-4.1c0-0.3-0.3-0.6-0.6-0.6h-4.1c-0.3,0-0.6,0.3-0.6,0.6v4.1
		C27.6,33.6,27.9,33.8,28.3,33.8z M28.9,29.7h2.8v2.9h-2.8V29.7z"/>
	<path class="st1" d="M34.9,33.8H39c0.3,0,0.6-0.3,0.6-0.6v-4.1c0-0.3-0.3-0.6-0.6-0.6h-4.1c-0.3,0-0.6,0.3-0.6,0.6v4.1
		C34.3,33.6,34.5,33.8,34.9,33.8z M35.5,29.7h2.8v2.9h-2.8V29.7z"/>
	<path class="st1" d="M8.9,39.9H13c0.3,0,0.6-0.3,0.6-0.6v-4.1c0-0.3-0.3-0.6-0.6-0.6H8.9c-0.3,0-0.6,0.3-0.6,0.6v4.1
		C8.3,39.6,8.6,39.9,8.9,39.9z M9.6,35.8h2.8v2.8H9.6V35.8z"/>
	<path class="st1" d="M15.3,39.9h4.1c0.3,0,0.6-0.3,0.6-0.6v-4.1c0-0.3-0.3-0.6-0.6-0.6h-4.1c-0.3,0-0.6,0.3-0.6,0.6v4.1
		C14.7,39.6,15,39.9,15.3,39.9z M15.9,35.8h2.8v2.8h-2.8C15.9,38.6,15.9,35.8,15.9,35.8z"/>
	<path class="st1" d="M21.7,39.9h4.1c0.3,0,0.6-0.3,0.6-0.6v-4.1c0-0.3-0.3-0.6-0.6-0.6h-4.1c-0.3,0-0.6,0.3-0.6,0.6v4.1
		C21.1,39.6,21.3,39.9,21.7,39.9z M22.3,35.8h2.8v2.8h-2.8C22.3,38.6,22.3,35.8,22.3,35.8z"/>
	<path class="st1" d="M28.3,39.9h4.1c0.3,0,0.6-0.3,0.6-0.6v-4.1c0-0.3-0.3-0.6-0.6-0.6h-4.1c-0.3,0-0.6,0.3-0.6,0.6v4.1
		C27.6,39.6,27.9,39.9,28.3,39.9z M28.9,35.8h2.8v2.8h-2.8V35.8z"/>
	<path class="st1" d="M34.9,39.9H39c0.3,0,0.6-0.3,0.6-0.6v-4.1c0-0.3-0.3-0.6-0.6-0.6h-4.1c-0.3,0-0.6,0.3-0.6,0.6v4.1
		C34.3,39.6,34.5,39.9,34.9,39.9z M35.5,35.8h2.8v2.8h-2.8V35.8z"/>
	<path class="st0" d="M42.2,19.8H5.7c-0.3,0-0.6,0.3-0.6,0.6v22.2c0,0.3,0.3,0.6,0.6,0.6h36.5c0.3,0,0.6-0.3,0.6-0.6V20.5
		C42.8,20.1,42.6,19.8,42.2,19.8z M41.6,42H6.3V21.1h35.3V42z"/>
</g>
</svg>
