<?xml version="1.0" encoding="utf-8"?>
<!-- Generator: Adobe Illustrator 24.1.3, SVG Export Plug-In . SVG Version: 6.00 Build 0)  -->
<svg version="1.1" id="Capa_1" xmlns="http://www.w3.org/2000/svg" xmlns:xlink="http://www.w3.org/1999/xlink" x="0px" y="0px"
	 viewBox="0 0 38.1 38.1" style="enable-background:new 0 0 38.1 38.1;" xml:space="preserve">
<style type="text/css">
	.st0{fill:#010002;}
	.st1{fill:#00BCFF;}
	.st2{font-family:'MyriadPro-Regular';}
	.st3{font-size:12px;}
	.st4{fill:none;}
</style>
<g>
	<path class="st0" d="M35.5,9h-8.1V1.3c0-0.3-0.3-0.6-0.6-0.6H11.4c-0.3,0-0.6,0.3-0.6,0.6V9H2.7C2.3,9,2.1,9.3,2.1,9.6L0,36.8
		c0,0.2,0,0.3,0.2,0.5c0.1,0.1,0.3,0.2,0.5,0.2h36.9c0.2,0,0.3-0.1,0.5-0.2c0.1-0.1,0.2-0.3,0.2-0.5l-2-27.2C36.1,9.3,35.8,9,35.5,9
		z M26.7,13c0.3,0,0.6,0.3,0.6,0.6c0,0.3-0.3,0.6-0.6,0.6s-0.6-0.3-0.6-0.6C26.1,13.2,26.4,13,26.7,13z M12.1,1.9h14V9h-14
		C12.1,9,12.1,1.9,12.1,1.9z M11.4,13c0.3,0,0.6,0.3,0.6,0.6c0,0.3-0.3,0.6-0.6,0.6s-0.6-0.3-0.6-0.6C10.9,13.2,11.1,13,11.4,13z
		 M1.3,36.3l2-26h7.6v1.6c-0.7,0.3-1.2,0.9-1.2,1.7c0,1,0.8,1.8,1.8,1.8s1.8-0.8,1.8-1.8c0-0.8-0.5-1.4-1.2-1.7v-1.6h14v1.6
		c-0.7,0.3-1.2,0.9-1.2,1.7c0,1,0.8,1.8,1.8,1.8s1.8-0.8,1.8-1.8c0-0.8-0.5-1.4-1.2-1.7v-1.6h7.6l2,26H1.3z"/>
</g>
<text transform="matrix(1 0 0 1 6.319 28.2127)" class="st1 st2 st3">Shop</text>
<polygon class="st4" points="23.6,24.5 47.4,24.5 47.4,24.5 23.6,24.5 "/>
</svg>
